<?xml version="1.0" encoding="UTF-8" standalone="no"?>
<!DOCTYPE svg PUBLIC "-//W3C//DTD SVG 1.1//EN"
 "http://www.w3.org/Graphics/SVG/1.1/DTD/svg11.dtd">
<!-- Generated by graphviz version 2.40.1 (20161225.0304)
 -->
<!-- Title: A Pages: 1 -->
<svg width="667pt" height="332pt"
 viewBox="0.00 0.00 666.88 332.00" xmlns="http://www.w3.org/2000/svg" xmlns:xlink="http://www.w3.org/1999/xlink">
<g id="graph0" class="graph" transform="scale(1 1) rotate(0) translate(4 328)">
<title>A</title>
<polygon fill="#ffffff" stroke="transparent" points="-4,4 -4,-328 662.8794,-328 662.8794,4 -4,4"/>
<!-- 1 -->
<g id="node1" class="node">
<title>1</title>
<ellipse fill="none" stroke="#000000" cx="27" cy="-234" rx="27" ry="18"/>
<text text-anchor="middle" x="27" y="-229.8" font-family="Times,serif" font-size="14.00" fill="#000000">1(1)</text>
</g>
<!-- 2 -->
<g id="node2" class="node">
<title>2</title>
<ellipse fill="none" stroke="#000000" cx="101" cy="-234" rx="29.0257" ry="18"/>
<text text-anchor="middle" x="101" y="-229.8" font-family="Times,serif" font-size="14.00" fill="#000000">2(10)</text>
</g>
<!-- 3 -->
<g id="node3" class="node">
<title>3</title>
<ellipse fill="none" stroke="#000000" cx="59" cy="-162" rx="28.8762" ry="18"/>
<text text-anchor="middle" x="59" y="-157.8" font-family="Times,serif" font-size="14.00" fill="#000000">3(11)</text>
</g>
<!-- 2&#45;&gt;3 -->
<g id="edge5" class="edge">
<title>2&#45;&gt;3</title>
<path fill="none" stroke="#000000" d="M91.0466,-216.937C85.9729,-208.2393 79.6966,-197.4799 74.047,-187.7948"/>
<polygon fill="#000000" stroke="#000000" points="76.944,-185.8148 68.882,-178.9405 70.8975,-189.3419 76.944,-185.8148"/>
</g>
<!-- 4 -->
<g id="node4" class="node">
<title>4</title>
<ellipse fill="none" stroke="#000000" cx="182" cy="-234" rx="33.8683" ry="18"/>
<text text-anchor="middle" x="182" y="-229.8" font-family="Times,serif" font-size="14.00" fill="#000000">4(100)</text>
</g>
<!-- 5 -->
<g id="node5" class="node">
<title>5</title>
<ellipse fill="none" stroke="#000000" cx="140" cy="-162" rx="33.8683" ry="18"/>
<text text-anchor="middle" x="140" y="-157.8" font-family="Times,serif" font-size="14.00" fill="#000000">5(101)</text>
</g>
<!-- 4&#45;&gt;5 -->
<g id="edge6" class="edge">
<title>4&#45;&gt;5</title>
<path fill="none" stroke="#000000" d="M171.833,-216.5708C166.8288,-207.9922 160.6945,-197.4762 155.151,-187.9732"/>
<polygon fill="#000000" stroke="#000000" points="158.1354,-186.1429 150.0734,-179.2687 152.0889,-189.6701 158.1354,-186.1429"/>
</g>
<!-- 6 -->
<g id="node6" class="node">
<title>6</title>
<ellipse fill="none" stroke="#000000" cx="225" cy="-162" rx="33.2201" ry="18"/>
<text text-anchor="middle" x="225" y="-157.8" font-family="Times,serif" font-size="14.00" fill="#000000">6(110)</text>
</g>
<!-- 4&#45;&gt;6 -->
<g id="edge7" class="edge">
<title>4&#45;&gt;6</title>
<path fill="none" stroke="#000000" d="M192.4091,-216.5708C197.5324,-207.9922 203.8128,-197.4762 209.4882,-187.9732"/>
<polygon fill="#000000" stroke="#000000" points="212.5642,-189.6487 214.6868,-179.2687 206.5544,-186.0595 212.5642,-189.6487"/>
</g>
<!-- 7 -->
<g id="node7" class="node">
<title>7</title>
<ellipse fill="none" stroke="#000000" cx="225" cy="-90" rx="33.0719" ry="18"/>
<text text-anchor="middle" x="225" y="-85.8" font-family="Times,serif" font-size="14.00" fill="#000000">7(111)</text>
</g>
<!-- 6&#45;&gt;7 -->
<g id="edge8" class="edge">
<title>6&#45;&gt;7</title>
<path fill="none" stroke="#000000" d="M225,-143.8314C225,-136.131 225,-126.9743 225,-118.4166"/>
<polygon fill="#000000" stroke="#000000" points="228.5001,-118.4132 225,-108.4133 221.5001,-118.4133 228.5001,-118.4132"/>
</g>
<!-- 8 -->
<g id="node8" class="node">
<title>8</title>
<ellipse fill="none" stroke="#000000" cx="363" cy="-234" rx="38.211" ry="18"/>
<text text-anchor="middle" x="363" y="-229.8" font-family="Times,serif" font-size="14.00" fill="#000000">8(1000)</text>
</g>
<!-- 9 -->
<g id="node9" class="node">
<title>9</title>
<ellipse fill="none" stroke="#000000" cx="314" cy="-162" rx="38.211" ry="18"/>
<text text-anchor="middle" x="314" y="-157.8" font-family="Times,serif" font-size="14.00" fill="#000000">9(1001)</text>
</g>
<!-- 8&#45;&gt;9 -->
<g id="edge9" class="edge">
<title>8&#45;&gt;9</title>
<path fill="none" stroke="#000000" d="M351.1385,-216.5708C345.2401,-207.9038 337.9958,-197.2592 331.4764,-187.6796"/>
<polygon fill="#000000" stroke="#000000" points="334.2721,-185.5666 325.7523,-179.2687 328.4851,-189.505 334.2721,-185.5666"/>
</g>
<!-- 10 -->
<g id="node10" class="node">
<title>10</title>
<ellipse fill="none" stroke="#000000" cx="413" cy="-162" rx="42.5542" ry="18"/>
<text text-anchor="middle" x="413" y="-157.8" font-family="Times,serif" font-size="14.00" fill="#000000">10(1010)</text>
</g>
<!-- 8&#45;&gt;10 -->
<g id="edge10" class="edge">
<title>8&#45;&gt;10</title>
<path fill="none" stroke="#000000" d="M375.1036,-216.5708C381.0781,-207.9675 388.4058,-197.4156 395.0201,-187.8911"/>
<polygon fill="#000000" stroke="#000000" points="398.0054,-189.7284 400.8346,-179.5182 392.2558,-185.7356 398.0054,-189.7284"/>
</g>
<!-- 12 -->
<g id="node12" class="node">
<title>12</title>
<ellipse fill="none" stroke="#000000" cx="516" cy="-162" rx="42.4075" ry="18"/>
<text text-anchor="middle" x="516" y="-157.8" font-family="Times,serif" font-size="14.00" fill="#000000">12(1100)</text>
</g>
<!-- 8&#45;&gt;12 -->
<g id="edge11" class="edge">
<title>8&#45;&gt;12</title>
<path fill="none" stroke="#000000" d="M390.0011,-221.2936C414.4811,-209.7736 450.812,-192.6767 478.18,-179.7976"/>
<polygon fill="#000000" stroke="#000000" points="479.8946,-182.859 487.4525,-175.4341 476.914,-176.5253 479.8946,-182.859"/>
</g>
<!-- 11 -->
<g id="node11" class="node">
<title>11</title>
<ellipse fill="none" stroke="#000000" cx="413" cy="-90" rx="41.7591" ry="18"/>
<text text-anchor="middle" x="413" y="-85.8" font-family="Times,serif" font-size="14.00" fill="#000000">11(1011)</text>
</g>
<!-- 10&#45;&gt;11 -->
<g id="edge12" class="edge">
<title>10&#45;&gt;11</title>
<path fill="none" stroke="#000000" d="M413,-143.8314C413,-136.131 413,-126.9743 413,-118.4166"/>
<polygon fill="#000000" stroke="#000000" points="416.5001,-118.4132 413,-108.4133 409.5001,-118.4133 416.5001,-118.4132"/>
</g>
<!-- 13 -->
<g id="node13" class="node">
<title>13</title>
<ellipse fill="none" stroke="#000000" cx="515" cy="-90" rx="42.4075" ry="18"/>
<text text-anchor="middle" x="515" y="-85.8" font-family="Times,serif" font-size="14.00" fill="#000000">13(1101)</text>
</g>
<!-- 12&#45;&gt;13 -->
<g id="edge13" class="edge">
<title>12&#45;&gt;13</title>
<path fill="none" stroke="#000000" d="M515.7477,-143.8314C515.6407,-136.131 515.5135,-126.9743 515.3947,-118.4166"/>
<polygon fill="#000000" stroke="#000000" points="518.8944,-118.3637 515.2557,-108.4133 511.8951,-118.4609 518.8944,-118.3637"/>
</g>
<!-- 14 -->
<g id="node14" class="node">
<title>14</title>
<ellipse fill="none" stroke="#000000" cx="617" cy="-90" rx="41.7591" ry="18"/>
<text text-anchor="middle" x="617" y="-85.8" font-family="Times,serif" font-size="14.00" fill="#000000">14(1110)</text>
</g>
<!-- 12&#45;&gt;14 -->
<g id="edge14" class="edge">
<title>12&#45;&gt;14</title>
<path fill="none" stroke="#000000" d="M537.9155,-146.3771C552.2095,-136.1873 571.0593,-122.7498 586.7706,-111.5497"/>
<polygon fill="#000000" stroke="#000000" points="589.0162,-114.2472 595.1273,-105.5924 584.9528,-108.5473 589.0162,-114.2472"/>
</g>
<!-- 15 -->
<g id="node15" class="node">
<title>15</title>
<ellipse fill="none" stroke="#000000" cx="617" cy="-18" rx="41.6111" ry="18"/>
<text text-anchor="middle" x="617" y="-13.8" font-family="Times,serif" font-size="14.00" fill="#000000">15(1111)</text>
</g>
<!-- 14&#45;&gt;15 -->
<g id="edge15" class="edge">
<title>14&#45;&gt;15</title>
<path fill="none" stroke="#000000" d="M617,-71.8314C617,-64.131 617,-54.9743 617,-46.4166"/>
<polygon fill="#000000" stroke="#000000" points="620.5001,-46.4132 617,-36.4133 613.5001,-46.4133 620.5001,-46.4132"/>
</g>
<!-- 0 -->
<g id="node16" class="node">
<title>0</title>
<ellipse fill="none" stroke="#000000" cx="141" cy="-306" rx="27" ry="18"/>
<text text-anchor="middle" x="141" y="-301.8" font-family="Times,serif" font-size="14.00" fill="#000000">0</text>
</g>
<!-- 0&#45;&gt;1 -->
<g id="edge1" class="edge">
<title>0&#45;&gt;1</title>
<path fill="none" stroke="#000000" d="M121.1427,-293.4586C102.916,-281.9469 75.7146,-264.7671 55.2311,-251.8302"/>
<polygon fill="#000000" stroke="#000000" points="56.9536,-248.7785 46.6297,-246.3977 53.2156,-254.6969 56.9536,-248.7785"/>
</g>
<!-- 0&#45;&gt;2 -->
<g id="edge2" class="edge">
<title>0&#45;&gt;2</title>
<path fill="none" stroke="#000000" d="M131.5206,-288.937C126.7585,-280.3654 120.8841,-269.7914 115.5647,-260.2165"/>
<polygon fill="#000000" stroke="#000000" points="118.6053,-258.4825 110.6893,-251.4407 112.4862,-261.882 118.6053,-258.4825"/>
</g>
<!-- 0&#45;&gt;4 -->
<g id="edge3" class="edge">
<title>0&#45;&gt;4</title>
<path fill="none" stroke="#000000" d="M150.7164,-288.937C155.5975,-280.3654 161.6188,-269.7914 167.0711,-260.2165"/>
<polygon fill="#000000" stroke="#000000" points="170.1615,-261.8625 172.0685,-251.4407 164.0786,-258.3986 170.1615,-261.8625"/>
</g>
<!-- 0&#45;&gt;8 -->
<g id="edge4" class="edge">
<title>0&#45;&gt;8</title>
<path fill="none" stroke="#000000" d="M165.6061,-298.0196C203.3637,-285.7739 276.0242,-262.2084 321.8756,-247.3376"/>
<polygon fill="#000000" stroke="#000000" points="323.0789,-250.6269 331.5113,-244.2126 320.9193,-243.9684 323.0789,-250.6269"/>
</g>
</g>
</svg>
